<?xml version="1.0" encoding="UTF-8" standalone="no"?>
<svg width="120" height="120" viewBox="0 0 120 120" fill="none" xmlns="http://www.w3.org/2000/svg">
<path d="M60.115 107.711C88.275 107.711 111.538 85.6728 113.374 58.125C113.374 59.3493 113.68 60.2676 113.68 61.492C113.68 90.8763 89.8055 115.057 60.115 115.057C30.7307 115.057 6.5498 91.1824 6.5498 61.492C6.5498 60.2676 6.5498 59.3493 6.85589 58.125C8.69241 85.6728 31.955 107.711 60.115 107.711Z" fill="#3E3A6B"/>
<path d="M60.115 112.279C89.6983 112.279 113.68 88.2969 113.68 58.7137C113.68 29.1304 89.6983 5.14844 60.115 5.14844C30.5318 5.14844 6.5498 29.1304 6.5498 58.7137C6.5498 88.2969 30.5318 112.279 60.115 112.279Z" fill="#4F4B7D"/>
<path d="M98.006 20.9199C118.853 41.7672 118.853 75.7974 98.006 96.6447C77.1587 117.492 43.1285 117.492 22.2812 96.6447" fill="black" fill-opacity="0.153846"/>
<path d="M33.1136 66.8432C34.9275 66.5559 35.9452 65.1551 35.658 63.3412C35.3707 61.5273 33.9698 60.5095 32.1559 60.7968L20.0632 62.7121C18.2493 62.9994 17.2315 64.4002 17.5188 66.2141C17.8061 68.0281 19.2069 69.0458 21.0209 68.7585L33.1136 66.8432Z" fill="#2C2952"/>
<path d="M33.18 68.8178C34.9939 68.5305 36.0117 67.1297 35.7244 65.3158C35.4371 63.5019 34.0363 62.4841 32.2223 62.7714L20.1296 64.6867C18.3157 64.974 17.2979 66.3748 17.5852 68.1888C17.8725 70.0027 19.2733 71.0204 21.0873 70.7331L33.18 68.8178Z" fill="#B0AAF0"/>
</svg>
