<?xml version="1.0" encoding="UTF-8" standalone="no"?>
<svg width="120" height="120" viewBox="0 0 120 120" fill="none" xmlns="http://www.w3.org/2000/svg">
<path d="M60.115 107.711C88.275 107.711 111.538 85.6728 113.374 58.125C113.374 59.3493 113.68 60.2676 113.68 61.492C113.68 90.8763 89.8055 115.057 60.115 115.057C30.7307 115.057 6.5498 91.1824 6.5498 61.492C6.5498 60.2676 6.5498 59.3493 6.85589 58.125C8.69241 85.6728 31.955 107.711 60.115 107.711Z" fill="#3E3A6B"/>
<path d="M60.115 112.279C89.6983 112.279 113.68 88.2969 113.68 58.7137C113.68 29.1304 89.6983 5.14844 60.115 5.14844C30.5318 5.14844 6.5498 29.1304 6.5498 58.7137C6.5498 88.2969 30.5318 112.279 60.115 112.279Z" fill="#4F4B7D"/>
<path d="M98.006 20.9199C118.853 41.7672 118.853 75.7974 98.006 96.6447C77.1587 117.492 43.1285 117.492 22.2812 96.6447" fill="black" fill-opacity="0.153846"/>
<path d="M46.3131 83.7811C47.3926 82.2953 47.1217 80.5851 45.6359 79.5056C44.1501 78.4261 42.44 78.697 41.3605 80.1828L34.1639 90.088C33.0845 91.5738 33.3553 93.2839 34.8411 94.3634C36.3269 95.4429 38.0371 95.172 39.1165 93.6862L46.3131 83.7811Z" fill="#2C2952"/>
<path d="M46.3077 85.615C47.3872 84.1293 47.1163 82.4191 45.6305 81.3396C44.1448 80.2601 42.4346 80.531 41.3551 82.0168L34.1586 91.922C33.0791 93.4077 33.35 95.1179 34.8357 96.1974C36.3215 97.2769 38.0317 97.006 39.1112 95.5202L46.3077 85.615Z" fill="#B0AAF0"/>
</svg>
