<?xml version="1.0" encoding="UTF-8" standalone="no"?>
<svg width="120" height="120" viewBox="0 0 120 120" fill="none" xmlns="http://www.w3.org/2000/svg">
<path d="M60.115 107.711C88.275 107.711 111.538 85.6728 113.374 58.125C113.374 59.3493 113.68 60.2676 113.68 61.492C113.68 90.8763 89.8055 115.057 60.115 115.057C30.7307 115.057 6.5498 91.1824 6.5498 61.492C6.5498 60.2676 6.5498 59.3493 6.85589 58.125C8.69241 85.6728 31.955 107.711 60.115 107.711Z" fill="#121C1B"/>
<path d="M60.115 112.279C89.6983 112.279 113.68 88.2969 113.68 58.7137C113.68 29.1304 89.6983 5.14844 60.115 5.14844C30.5318 5.14844 6.5498 29.1304 6.5498 58.7137C6.5498 88.2969 30.5318 112.279 60.115 112.279Z" fill="#283538"/>
<path d="M98.006 20.9199C118.853 41.7672 118.853 75.7974 98.006 96.6447C77.1587 117.492 43.1285 117.492 22.2812 96.6447" fill="black" fill-opacity="0.153846"/>
<path d="M32.3449 57.6777C34.1814 57.6777 35.4058 58.9021 35.4058 60.7386C35.4058 62.5751 34.1814 63.7995 32.3449 63.7995H20.1014C18.2649 63.7995 17.0405 62.5751 17.0405 60.7386C17.0405 58.9021 18.2649 57.6777 20.1014 57.6777H32.3449Z" fill="#121C1B"/>
<path d="M32.3449 55.6777C34.1814 55.6777 35.4058 56.9021 35.4058 58.7386C35.4058 60.5751 34.1814 61.7995 32.3449 61.7995H20.1014C18.2649 61.7995 17.0405 60.5751 17.0405 58.7386C17.0405 56.9021 18.2649 55.6777 20.1014 55.6777H32.3449Z" fill="#A6A4BB"/>
</svg>
