<?xml version="1.0" encoding="UTF-8" standalone="no"?>
<svg width="120" height="120" viewBox="0 0 120 120" fill="none" xmlns="http://www.w3.org/2000/svg">
<path d="M60.115 107.711C88.275 107.711 111.538 85.6728 113.374 58.125C113.374 59.3493 113.68 60.2676 113.68 61.492C113.68 90.8763 89.8055 115.057 60.115 115.057C30.7307 115.057 6.5498 91.1824 6.5498 61.492C6.5498 60.2676 6.5498 59.3493 6.85589 58.125C8.69241 85.6728 31.955 107.711 60.115 107.711Z" fill="#6B3A48"/>
<path d="M60.115 112.279C89.6983 112.279 113.68 88.2969 113.68 58.7137C113.68 29.1304 89.6983 5.14844 60.115 5.14844C30.5318 5.14844 6.5498 29.1304 6.5498 58.7137C6.5498 88.2969 30.5318 112.279 60.115 112.279Z" fill="#7D4B5A"/>
<path d="M98.006 20.9199C118.853 41.7672 118.853 75.7974 98.006 96.6447C77.1587 117.492 43.1285 117.492 22.2812 96.6447" fill="black" fill-opacity="0.153846"/>
<path d="M34.6492 70.9835C36.3959 70.416 37.182 68.8732 36.6144 67.1266C36.0469 65.38 34.5041 64.5939 32.7575 65.1614L21.1133 68.9448C19.3666 69.5124 18.5806 71.0551 19.1481 72.8018C19.7156 74.5484 21.2584 75.3345 23.005 74.767L34.6492 70.9835Z" fill="#522935"/>
<path d="M34.6756 72.9249C36.4222 72.3574 37.2083 70.8146 36.6408 69.068C36.0733 67.3214 34.5305 66.5353 32.7839 67.1028L21.1396 70.8863C19.393 71.4538 18.6069 72.9965 19.1744 74.7432C19.742 76.4898 21.2847 77.2759 23.0314 76.7084L34.6756 72.9249Z" fill="#F0AABF"/>
</svg>
