<?xml version="1.0" encoding="UTF-8" standalone="no"?>
<svg width="120" height="120" viewBox="0 0 120 120" fill="none" xmlns="http://www.w3.org/2000/svg">
<path d="M60.115 107.711C88.275 107.711 111.538 85.6728 113.374 58.125C113.374 59.3493 113.68 60.2676 113.68 61.492C113.68 90.8763 89.8055 115.057 60.115 115.057C30.7307 115.057 6.5498 91.1824 6.5498 61.492C6.5498 60.2676 6.5498 59.3493 6.85589 58.125C8.69241 85.6728 31.955 107.711 60.115 107.711Z" fill="#121C1B"/>
<path d="M60.115 112.279C89.6983 112.279 113.68 88.2969 113.68 58.7137C113.68 29.1304 89.6983 5.14844 60.115 5.14844C30.5318 5.14844 6.5498 29.1304 6.5498 58.7137C6.5498 88.2969 30.5318 112.279 60.115 112.279Z" fill="#283538"/>
<path d="M98.006 20.9199C118.853 41.7672 118.853 75.7974 98.006 96.6447C77.1587 117.492 43.1285 117.492 22.2812 96.6447" fill="black" fill-opacity="0.153846"/>
<path d="M86.0843 69.5416C84.4479 68.7078 82.8012 69.2429 81.9674 70.8793C81.1337 72.5156 81.6687 74.1624 83.3051 74.9961L94.2141 80.5546C95.8504 81.3883 97.4972 80.8533 98.331 79.2169C99.1647 77.5806 98.6297 75.9338 96.9933 75.1L86.0843 69.5416Z" fill="#121C1B"/>
<path d="M86.1058 71.1158C84.4694 70.2821 82.8227 70.8171 81.9889 72.4535C81.1551 74.0898 81.6902 75.7366 83.3266 76.5704L94.2356 82.1288C95.8719 82.9625 97.5187 82.4275 98.3524 80.7911C99.1862 79.1548 98.6511 77.508 97.0148 76.6743L86.1058 71.1158Z" fill="#B43C60"/>
</svg>
