<?xml version="1.0" encoding="UTF-8" standalone="no"?>
<svg width="120" height="120" viewBox="0 0 120 120" fill="none" xmlns="http://www.w3.org/2000/svg">
<path d="M60.115 107.711C88.275 107.711 111.538 85.6728 113.374 58.125C113.374 59.3493 113.68 60.2676 113.68 61.492C113.68 90.8763 89.8055 115.057 60.115 115.057C30.7307 115.057 6.5498 91.1824 6.5498 61.492C6.5498 60.2676 6.5498 59.3493 6.85589 58.125C8.69241 85.6728 31.955 107.711 60.115 107.711Z" fill="#6B3A48"/>
<path d="M60.115 112.279C89.6983 112.279 113.68 88.2969 113.68 58.7137C113.68 29.1304 89.6983 5.14844 60.115 5.14844C30.5318 5.14844 6.5498 29.1304 6.5498 58.7137C6.5498 88.2969 30.5318 112.279 60.115 112.279Z" fill="#7D4B5A"/>
<path d="M98.006 20.9199C118.853 41.7672 118.853 75.7974 98.006 96.6447C77.1587 117.492 43.1285 117.492 22.2812 96.6447" fill="black" fill-opacity="0.153846"/>
<path d="M42.675 81.31C43.9736 80.0114 43.9736 78.2799 42.675 76.9813C41.3764 75.6827 39.6449 75.6827 38.3463 76.9813L29.6888 85.6387C28.3902 86.9373 28.3902 88.6688 29.6888 89.9674C30.9874 91.2661 32.7189 91.2661 34.0175 89.9674L42.675 81.31Z" fill="#522935"/>
<path d="M42.6838 83.1694C43.9824 81.8708 43.9824 80.1393 42.6838 78.8406C41.3852 77.542 39.6537 77.542 38.355 78.8406L29.6976 87.4981C28.399 88.7967 28.399 90.5282 29.6976 91.8268C30.9962 93.1254 32.7277 93.1254 34.0263 91.8268L42.6838 83.1694Z" fill="#F0AABF"/>
</svg>
