<?xml version="1.0" encoding="UTF-8" standalone="no"?>
<svg width="120" height="120" viewBox="0 0 120 120" fill="none" xmlns="http://www.w3.org/2000/svg">
<path d="M60.115 107.563C88.275 107.563 111.538 85.5244 113.374 57.9766C113.374 59.2009 113.68 60.1192 113.68 61.3435C113.68 90.7279 89.8055 114.909 60.115 114.909C30.7307 114.909 6.5498 91.034 6.5498 61.3435C6.5498 60.1192 6.5498 59.2009 6.85589 57.9766C8.69241 85.5244 31.955 107.563 60.115 107.563Z" fill="#121C1B"/>
<path d="M60.115 112.13C89.6983 112.13 113.68 88.1485 113.68 58.5652C113.68 28.982 89.6983 5 60.115 5C30.5318 5 6.5498 28.982 6.5498 58.5652C6.5498 88.1485 30.5318 112.13 60.115 112.13Z" fill="#283538"/>
<path d="M98.006 20.7715C118.853 41.6188 118.853 75.6489 98.006 96.4962C77.1587 117.344 43.1285 117.344 22.2812 96.4962" fill="black" fill-opacity="0.153846"/>
<path d="M75.3897 82.9291C74.5559 81.2927 72.9092 80.7577 71.2728 81.5914C69.6365 82.4252 69.1014 84.0719 69.9352 85.7083L75.4936 96.6173C76.3274 98.2536 77.9741 98.7887 79.6105 97.9549C81.2468 97.1212 81.7819 95.4744 80.9481 93.8381L75.3897 82.9291Z" fill="#121C1B"/>
<path d="M75.3936 84.5892C74.5598 82.9529 72.9131 82.4178 71.2767 83.2516C69.6404 84.0853 69.1053 85.7321 69.9391 87.3684L75.4975 98.2774C76.3313 99.9138 77.978 100.449 79.6144 99.6151C81.2507 98.7813 81.7858 97.1346 80.952 95.4982L75.3936 84.5892Z" fill="#A6A4BB"/>
</svg>
