<?xml version="1.0" encoding="UTF-8" standalone="no"?>
<svg width="120" height="120" viewBox="0 0 120 120" fill="none" xmlns="http://www.w3.org/2000/svg">
<path d="M60.115 107.711C88.275 107.711 111.538 85.6728 113.374 58.125C113.374 59.3493 113.68 60.2676 113.68 61.492C113.68 90.8763 89.8055 115.057 60.115 115.057C30.7307 115.057 6.5498 91.1824 6.5498 61.492C6.5498 60.2676 6.5498 59.3493 6.85589 58.125C8.69241 85.6728 31.955 107.711 60.115 107.711Z" fill="#6B3A48"/>
<path d="M60.115 112.279C89.6983 112.279 113.68 88.2969 113.68 58.7137C113.68 29.1304 89.6983 5.14844 60.115 5.14844C30.5318 5.14844 6.5498 29.1304 6.5498 58.7137C6.5498 88.2969 30.5318 112.279 60.115 112.279Z" fill="#7D4B5A"/>
<path d="M98.006 20.9199C118.853 41.7672 118.853 75.7974 98.006 96.6447C77.1587 117.492 43.1285 117.492 22.2812 96.6447" fill="black" fill-opacity="0.153846"/>
<path d="M87.8539 61.0449C86.0399 60.7576 84.6391 61.7753 84.3518 63.5892C84.0645 65.4031 85.0823 66.804 86.8962 67.0912L98.9889 69.0066C100.803 69.2938 102.204 68.2761 102.491 66.4622C102.778 64.6483 101.761 63.2475 99.9466 62.9602L87.8539 61.0449Z" fill="#522935"/>
<path d="M87.8412 62.5761C86.0273 62.2888 84.6265 63.3066 84.3392 65.1205C84.0519 66.9344 85.0696 68.3352 86.8835 68.6225L98.9763 70.5378C100.79 70.8251 102.191 69.8074 102.478 67.9934C102.766 66.1795 101.748 64.7787 99.9339 64.4914L87.8412 62.5761Z" fill="#F0AABF"/>
</svg>
