<?xml version="1.0" encoding="UTF-8" standalone="no"?>
<svg width="120" height="120" viewBox="0 0 120 120" fill="none" xmlns="http://www.w3.org/2000/svg">
<path d="M60.115 107.711C88.275 107.711 111.538 85.6728 113.374 58.125C113.374 59.3493 113.68 60.2676 113.68 61.492C113.68 90.8763 89.8055 115.057 60.115 115.057C30.7307 115.057 6.5498 91.1824 6.5498 61.492C6.5498 60.2676 6.5498 59.3493 6.85589 58.125C8.69241 85.6728 31.955 107.711 60.115 107.711Z" fill="#121C1B"/>
<path d="M60.115 112.279C89.6983 112.279 113.68 88.2969 113.68 58.7137C113.68 29.1304 89.6983 5.14844 60.115 5.14844C30.5318 5.14844 6.5498 29.1304 6.5498 58.7137C6.5498 88.2969 30.5318 112.279 60.115 112.279Z" fill="#283538"/>
<path d="M98.006 20.9199C118.853 41.7672 118.853 75.7974 98.006 96.6447C77.1587 117.492 43.1285 117.492 22.2812 96.6447" fill="black" fill-opacity="0.153846"/>
<path d="M63.1452 87.305C63.1452 85.4685 61.9208 84.2442 60.0843 84.2442C58.2478 84.2442 57.0234 85.4685 57.0234 87.305L57.0234 99.5485C57.0234 101.385 58.2478 102.609 60.0843 102.609C61.9208 102.609 63.1452 101.385 63.1452 99.5485V87.305Z" fill="#121C1B"/>
<path d="M63.1759 89.0394C63.1759 87.2029 61.9516 85.9785 60.1151 85.9785C58.2785 85.9785 57.0542 87.2029 57.0542 89.0394V101.283C57.0542 103.119 58.2785 104.344 60.1151 104.344C61.9516 104.344 63.1759 103.119 63.1759 101.283V89.0394Z" fill="#A6A4BB"/>
</svg>
