<?xml version="1.0" encoding="UTF-8" standalone="no"?>
<svg width="120" height="120" viewBox="0 0 120 120" fill="none" xmlns="http://www.w3.org/2000/svg">
<path d="M60.115 107.711C88.275 107.711 111.538 85.6728 113.374 58.125C113.374 59.3493 113.68 60.2676 113.68 61.492C113.68 90.8763 89.8055 115.057 60.115 115.057C30.7307 115.057 6.5498 91.1824 6.5498 61.492C6.5498 60.2676 6.5498 59.3493 6.85589 58.125C8.69241 85.6728 31.955 107.711 60.115 107.711Z" fill="#6B3A48"/>
<path d="M60.115 112.279C89.6983 112.279 113.68 88.2969 113.68 58.7137C113.68 29.1304 89.6983 5.14844 60.115 5.14844C30.5318 5.14844 6.5498 29.1304 6.5498 58.7137C6.5498 88.2969 30.5318 112.279 60.115 112.279Z" fill="#7D4B5A"/>
<path d="M98.006 20.9199C118.853 41.7672 118.853 75.7974 98.006 96.6447C77.1587 117.492 43.1285 117.492 22.2812 96.6447" fill="black" fill-opacity="0.153846"/>
<path d="M78.8348 80.259C77.7553 78.7732 76.0452 78.5023 74.5594 79.5818C73.0736 80.6613 72.8027 82.3715 73.8822 83.8572L81.0787 93.7624C82.1582 95.2482 83.8684 95.5191 85.3542 94.4396C86.84 93.3601 87.1108 91.6499 86.0313 90.1641L78.8348 80.259Z" fill="#522935"/>
<path d="M78.8372 81.8976C77.7578 80.4118 76.0476 80.141 74.5618 81.2205C73.076 82.2999 72.8052 84.0101 73.8846 85.4959L81.0812 95.4011C82.1607 96.8869 83.8708 97.1577 85.3566 96.0782C86.8424 94.9988 87.1133 93.2886 86.0338 91.8028L78.8372 81.8976Z" fill="#F0AABF"/>
</svg>
