<?xml version="1.0" encoding="UTF-8" standalone="no"?>
<svg width="120" height="120" viewBox="0 0 120 120" fill="none" xmlns="http://www.w3.org/2000/svg">
<path d="M60.115 107.711C88.275 107.711 111.538 85.6728 113.374 58.125C113.374 59.3493 113.68 60.2676 113.68 61.492C113.68 90.8763 89.8055 115.057 60.115 115.057C30.7307 115.057 6.5498 91.1824 6.5498 61.492C6.5498 60.2676 6.5498 59.3493 6.85589 58.125C8.69241 85.6728 31.955 107.711 60.115 107.711Z" fill="#121C1B"/>
<path d="M60.115 112.279C89.6983 112.279 113.68 88.2969 113.68 58.7137C113.68 29.1304 89.6983 5.14844 60.115 5.14844C30.5318 5.14844 6.5498 29.1304 6.5498 58.7137C6.5498 88.2969 30.5318 112.279 60.115 112.279Z" fill="#283538"/>
<path d="M98.006 20.9199C118.853 41.7672 118.853 75.7974 98.006 96.6447C77.1587 117.492 43.1285 117.492 22.2812 96.6447" fill="black" fill-opacity="0.153846"/>
<path d="M81.8193 77.0848C80.5207 75.7862 78.7892 75.7862 77.4906 77.0848C76.192 78.3834 76.1919 80.1149 77.4906 81.4135L86.148 90.071C87.4466 91.3696 89.1781 91.3696 90.4767 90.071C91.7754 88.7723 91.7754 87.0408 90.4767 85.7422L81.8193 77.0848Z" fill="#121C1B"/>
<path d="M81.8168 78.7039C80.5182 77.4053 78.7867 77.4053 77.4881 78.7039C76.1895 80.0025 76.1895 81.734 77.4881 83.0327L86.1456 91.6901C87.4442 92.9887 89.1757 92.9887 90.4743 91.6901C91.7729 90.3915 91.7729 88.66 90.4743 87.3614L81.8168 78.7039Z" fill="#B43C60"/>
</svg>
