<?xml version="1.0" encoding="UTF-8" standalone="no"?>
<svg width="120" height="120" viewBox="0 0 120 120" fill="none" xmlns="http://www.w3.org/2000/svg">
<path d="M60.115 107.711C88.275 107.711 111.538 85.6728 113.374 58.125C113.374 59.3493 113.68 60.2676 113.68 61.492C113.68 90.8763 89.8055 115.057 60.115 115.057C30.7307 115.057 6.5498 91.1824 6.5498 61.492C6.5498 60.2676 6.5498 59.3493 6.85589 58.125C8.69241 85.6728 31.955 107.711 60.115 107.711Z" fill="#3E3A6B"/>
<path d="M60.115 112.279C89.6983 112.279 113.68 88.2969 113.68 58.7137C113.68 29.1304 89.6983 5.14844 60.115 5.14844C30.5318 5.14844 6.5498 29.1304 6.5498 58.7137C6.5498 88.2969 30.5318 112.279 60.115 112.279Z" fill="#4F4B7D"/>
<path d="M98.006 20.9199C118.853 41.7672 118.853 75.7974 98.006 96.6447C77.1587 117.492 43.1285 117.492 22.2812 96.6447" fill="black" fill-opacity="0.153846"/>
<path d="M58.7911 87.4359C59.0784 85.6219 58.0606 84.2211 56.2467 83.9338C54.4328 83.6466 53.032 84.6643 52.7447 86.4782L50.8294 98.5709C50.5421 100.385 51.5598 101.786 53.3738 102.073C55.1877 102.36 56.5885 101.343 56.8758 99.5286L58.7911 87.4359Z" fill="#2C2952"/>
<path d="M58.8081 89.1937C59.0954 87.3798 58.0777 85.979 56.2638 85.6917C54.4499 85.4044 53.0491 86.4221 52.7618 88.236L50.8465 100.329C50.5592 102.143 51.5769 103.543 53.3908 103.831C55.2048 104.118 56.6055 103.1 56.8928 101.286L58.8081 89.1937Z" fill="#B0AAF0"/>
</svg>
