<?xml version="1.0" encoding="UTF-8" standalone="no"?>
<svg width="120" height="120" viewBox="0 0 120 120" fill="none" xmlns="http://www.w3.org/2000/svg">
<path d="M60.115 107.711C88.275 107.711 111.538 85.6728 113.374 58.125C113.374 59.3493 113.68 60.2676 113.68 61.492C113.68 90.8763 89.8055 115.057 60.115 115.057C30.7307 115.057 6.5498 91.1824 6.5498 61.492C6.5498 60.2676 6.5498 59.3493 6.85589 58.125C8.69241 85.6728 31.955 107.711 60.115 107.711Z" fill="#121C1B"/>
<path d="M60.115 112.279C89.6983 112.279 113.68 88.2969 113.68 58.7137C113.68 29.1304 89.6983 5.14844 60.115 5.14844C30.5318 5.14844 6.5498 29.1304 6.5498 58.7137C6.5498 88.2969 30.5318 112.279 60.115 112.279Z" fill="#283538"/>
<path d="M98.006 20.9199C118.853 41.7672 118.853 75.7974 98.006 96.6447C77.1587 117.492 43.1285 117.492 22.2812 96.6447" fill="black" fill-opacity="0.153846"/>
<path d="M39.4676 78.3075C40.9534 77.228 41.2242 75.5178 40.1448 74.0321C39.0653 72.5463 37.3551 72.2754 35.8693 73.3549L25.9641 80.5514C24.4784 81.6309 24.2075 83.3411 25.287 84.8269C26.3665 86.3126 28.0766 86.5835 29.5624 85.504L39.4676 78.3075Z" fill="#121C1B"/>
<path d="M39.4866 80.1923C40.9724 79.1128 41.2433 77.4026 40.1638 75.9168C39.0843 74.4311 37.3742 74.1602 35.8884 75.2397L25.9832 82.4362C24.4974 83.5157 24.2266 85.2259 25.306 86.7116C26.3855 88.1974 28.0957 88.4683 29.5815 87.3888L39.4866 80.1923Z" fill="#A6A4BB"/>
</svg>
