<?xml version="1.0" encoding="UTF-8" standalone="no"?>
<svg width="120" height="120" viewBox="0 0 120 120" fill="none" xmlns="http://www.w3.org/2000/svg">
<path d="M60.115 107.711C88.275 107.711 111.538 85.6728 113.374 58.125C113.374 59.3493 113.68 60.2676 113.68 61.492C113.68 90.8763 89.8055 115.057 60.115 115.057C30.7307 115.057 6.5498 91.1824 6.5498 61.492C6.5498 60.2676 6.5498 59.3493 6.85589 58.125C8.69241 85.6728 31.955 107.711 60.115 107.711Z" fill="#121C1B"/>
<path d="M60.115 112.279C89.6983 112.279 113.68 88.2969 113.68 58.7137C113.68 29.1304 89.6983 5.14844 60.115 5.14844C30.5318 5.14844 6.5498 29.1304 6.5498 58.7137C6.5498 88.2969 30.5318 112.279 60.115 112.279Z" fill="#283538"/>
<path d="M98.006 20.9199C118.853 41.7672 118.853 75.7974 98.006 96.6447C77.1587 117.492 43.1285 117.492 22.2812 96.6447" fill="black" fill-opacity="0.153846"/>
<path d="M54.4275 86.8743C54.995 85.1277 54.2089 83.5849 52.4623 83.0174C50.7156 82.4499 49.1729 83.236 48.6053 84.9826L44.8219 96.6268C44.2544 98.3735 45.0405 99.9162 46.7871 100.484C48.5337 101.051 50.0765 100.265 50.644 98.5186L54.4275 86.8743Z" fill="#121C1B"/>
<path d="M54.4704 88.6614C55.0379 86.9148 54.2519 85.372 52.5052 84.8045C50.7586 84.237 49.2158 85.0231 48.6483 86.7697L44.8649 98.414C44.2974 100.161 45.0834 101.703 46.8301 102.271C48.5767 102.838 50.1195 102.052 50.687 100.306L54.4704 88.6614Z" fill="#A6A4BB"/>
</svg>
